<?xml version="1.0" encoding="UTF-8" standalone="no"?>
<!DOCTYPE svg PUBLIC "-//W3C//DTD SVG 1.1//EN" "http://www.w3.org/Graphics/SVG/1.1/DTD/svg11.dtd">
<!-- Gerado por Microsoft Visio, SVG Export Esquema 1 - Agil vs Planned.svg Page-1 -->
<svg xmlns="http://www.w3.org/2000/svg" xmlns:xlink="http://www.w3.org/1999/xlink" xmlns:ev="http://www.w3.org/2001/xml-events"
		xmlns:v="http://schemas.microsoft.com/visio/2003/SVGExtensions/" width="11.6929in" height="8.26772in"
		viewBox="0 0 841.89 595.276" xml:space="preserve" color-interpolation-filters="sRGB" class="st12">
	<v:documentProperties v:langID="2070" v:metric="true" v:viewMarkup="false">
		<v:userDefs>
			<v:ud v:nameU="msvSubprocessMaster" v:prompt="" v:val="VT4(Rectangle)"/>
			<v:ud v:nameU="msvNoAutoConnect" v:val="VT0(1):26"/>
		</v:userDefs>
	</v:documentProperties>

	<style type="text/css">
	<![CDATA[
		.st1 {visibility:visible}
		.st2 {fill:#5b9bd5;fill-opacity:0.22;filter:url(#filter_2);stroke:#5b9bd5;stroke-opacity:0.22}
		.st3 {fill:#3c6c99;stroke:#41719c;stroke-width:0.25}
		.st4 {fill:#5b9bd5;fill-opacity:0.25;filter:url(#filter_2);stroke:#5b9bd5;stroke-opacity:0.25}
		.st5 {fill:#4f87bb;stroke:#40709c;stroke-width:0.75}
		.st6 {fill:#5b9bd5;stroke:#c7c8c8;stroke-width:0.25}
		.st7 {fill:#feffff;font-family:Calibri;font-size:1.00001em;font-weight:bold}
		.st8 {font-size:1em}
		.st9 {fill:none;stroke:none;stroke-width:0.25}
		.st10 {fill:#5b9bd5;font-family:Calibri;font-size:1.33333em}
		.st11 {fill:#3c6c99;stroke:#c7c8c8;stroke-width:0.25}
		.st12 {fill:none;fill-rule:evenodd;font-size:12px;overflow:visible;stroke-linecap:square;stroke-miterlimit:3}
	]]>
	</style>

	<defs id="Filters">
		<filter id="filter_2">
			<feGaussianBlur stdDeviation="2"/>
		</filter>
	</defs>
	<g v:mID="0" v:index="1" v:groupContext="foregroundPage">
		<v:userDefs>
			<v:ud v:nameU="msvThemeOrder" v:val="VT0(0):26"/>
		</v:userDefs>
		<title>Página-1</title>
		<v:pageProperties v:drawingScale="0.0393701" v:pageScale="0.0393701" v:drawingUnits="24" v:shadowOffsetX="8.50394"
				v:shadowOffsetY="-8.50394"/>
		<v:layer v:name="Conexão" v:index="0"/>
		<g id="group37-1" transform="translate(340.157,809.776) rotate(180)" v:mID="37" v:groupContext="group">
			<v:userDefs>
				<v:ud v:nameU="BarWidth" v:prompt="" v:val="VT0(0.19685039370079):24"/>
				<v:ud v:nameU="ArrowTipY" v:prompt="" v:val="VT0(0.19685039370079):24"/>
				<v:ud v:nameU="ArcHeight" v:prompt="" v:val="VT0(0.88582677165354):24"/>
				<v:ud v:nameU="visVersion" v:prompt="" v:val="VT0(15):26"/>
				<v:ud v:nameU="ArcHeight" v:prompt="" v:val="VT0(1.6286779941981):24"/>
			</v:userDefs>
			<title>Seta Curvada à Esquerda.37</title>
			<g id="shape38-2" v:mID="38" v:groupContext="shape">
				<title>Folha.38</title>
				<v:userDefs>
					<v:ud v:nameU="ArcHeight" v:prompt="" v:val="VT0(0.88582677165354):24"/>
					<v:ud v:nameU="BarWidth" v:prompt="" v:val="VT0(0.19685039370079):24"/>
					<v:ud v:nameU="ArrowBackX" v:prompt="" v:val="VT0(0.19685039370079):24"/>
					<v:ud v:nameU="ArrowTipY" v:prompt="" v:val="VT0(0.19685039370079):24"/>
					<v:ud v:nameU="FillForegnd" v:prompt="" v:val="VT5(1)"/>
					<v:ud v:nameU="ArcHeight" v:prompt="" v:val="VT0(1.6286779941981):24"/>
					<v:ud v:nameU="FillForegnd" v:prompt="" v:val="VT5(#4f88bb)"/>
				</v:userDefs>
				<g id="shadow38-3" v:groupContext="shadow" v:shadowOffsetX="0.345598" v:shadowOffsetY="-1.97279" v:shadowType="1"
						transform="matrix(1,0,0,1,-0.345598,-1.97279)" class="st1">
					<path d="M0 581.1 L14.17 566.93 L14.17 574.02 A28.3423 58.6238 -180 0 0 42.52 515.38 L42.52 529.56 A28.3423 58.6238
								 0 0 1 14.17 588.19 L14.17 595.28 L0 581.1 Z" class="st2"/>
				</g>
				<path d="M0 581.1 L14.17 566.93 L14.17 574.02 A28.3423 58.6238 -180 0 0 42.52 515.38 L42.52 529.56 A28.3423 58.6238
							 0 0 1 14.17 588.19 L14.17 595.28 L0 581.1 Z" class="st3"/>
			</g>
			<g id="shape37-7" v:mID="37" v:groupContext="groupContent">
				<g id="shadow37-8" v:groupContext="shadow" v:shadowOffsetX="0.345598" v:shadowOffsetY="-1.97279" v:shadowType="1"
						transform="matrix(1,0,0,1,-0.345598,-1.97279)" class="st1">
					<path d="M0 456.75 L0 470.92 A42.5134 58.6238 0 0 1 42.52 529.56 L42.52 515.38 A42.5134 58.6238 -180 0 0 0 456.75
								 Z" class="st4"/>
				</g>
				<path d="M0 456.75 L0 470.92 A42.5134 58.6238 0 0 1 42.52 529.56 L42.52 515.38 A42.5134 58.6238 -180 0 0 0 456.75
							 Z" class="st5"/>
			</g>
		</g>
		<g id="shape3-12" v:mID="3" v:groupContext="shape" transform="translate(340.157,-212.598)">
			<title>Retângulo Arredondado</title>
			<desc>Design e implementação de código</desc>
			<v:userDefs>
				<v:ud v:nameU="CTypeTopLeftSnip" v:prompt="" v:val="VT0(0):5"/>
				<v:ud v:nameU="CTypeTopRightSnip" v:prompt="" v:val="VT0(0):5"/>
				<v:ud v:nameU="CTypeBotLeftSnip" v:prompt="" v:val="VT0(0):5"/>
				<v:ud v:nameU="CTypeBotRightSnip" v:prompt="" v:val="VT0(0):5"/>
				<v:ud v:nameU="CornerLockHoriz" v:prompt="" v:val="VT0(1):5"/>
				<v:ud v:nameU="CornerLockVert" v:prompt="" v:val="VT0(1):5"/>
				<v:ud v:nameU="CornerLockDiag" v:prompt="" v:val="VT0(0):5"/>
				<v:ud v:nameU="TopLeftOffset" v:prompt="" v:val="VT0(0.15748031496063):24"/>
				<v:ud v:nameU="TopRightOffset" v:prompt="" v:val="VT0(0.15748031496063):24"/>
				<v:ud v:nameU="BotLeftOffset" v:prompt="" v:val="VT0(0.15748031496063):24"/>
				<v:ud v:nameU="BotRightOffset" v:prompt="" v:val="VT0(0.15748031496063):24"/>
				<v:ud v:nameU="visVersion" v:prompt="" v:val="VT0(15):26"/>
				<v:ud v:nameU="TopLeftOffset" v:prompt="" v:val="VT0(0.18009068525877):1"/>
				<v:ud v:nameU="TopRightOffset" v:prompt="" v:val="VT0(0.18009068525877):1"/>
				<v:ud v:nameU="BotLeftOffset" v:prompt="" v:val="VT0(0.18009068525877):1"/>
				<v:ud v:nameU="BotRightOffset" v:prompt="" v:val="VT0(0.18009068525877):1"/>
			</v:userDefs>
			<v:textBlock v:margins="rect(4,4,4,4)" v:tabSpace="42.5197"/>
			<v:textRect cx="64.8326" cy="563.05" width="129.67" height="64.4509"/>
			<g id="shadow3-13" v:groupContext="shadow" v:shadowOffsetX="0.345598" v:shadowOffsetY="-1.97279" v:shadowType="1"
					transform="matrix(1,0,0,1,0.345598,1.97279)" class="st1">
				<path d="M12.97 595.28 L116.7 595.28 A12.9663 12.9663 -180 0 0 129.67 582.31 L129.67 543.79 A12.9663 12.9663 -180
							 0 0 116.7 530.82 L12.97 530.82 A12.9663 12.9663 -180 0 0 0 543.79 L0 582.31 A12.9663 12.9663 -180 0
							 0 12.97 595.28 Z" class="st2"/>
			</g>
			<path d="M12.97 595.28 L116.7 595.28 A12.9663 12.9663 -180 0 0 129.67 582.31 L129.67 543.79 A12.9663 12.9663 -180 0 0
						 116.7 530.82 L12.97 530.82 A12.9663 12.9663 -180 0 0 0 543.79 L0 582.31 A12.9663 12.9663 -180 0 0 12.97
						 595.28 Z" class="st6"/>
			<text x="43.72" y="552.25" class="st7" v:langID="2070"><v:paragraph v:horizAlign="1"/><v:tabList/>Design e <tspan
						x="18.31" dy="1.2em" class="st8">implementação de </tspan><tspan x="48.33" dy="1.2em" class="st8">código</tspan></text>		</g>
		<g id="group35-20" transform="translate(467.717,-244.824)" v:mID="35" v:groupContext="group">
			<v:userDefs>
				<v:ud v:nameU="BarWidth" v:prompt="" v:val="VT0(0.19685039370079):24"/>
				<v:ud v:nameU="ArrowTipY" v:prompt="" v:val="VT0(0.19685039370079):24"/>
				<v:ud v:nameU="ArcHeight" v:prompt="" v:val="VT0(0.88582677165354):24"/>
				<v:ud v:nameU="visVersion" v:prompt="" v:val="VT0(15):26"/>
				<v:ud v:nameU="ArcHeight" v:prompt="" v:val="VT0(1.6286779941981):24"/>
			</v:userDefs>
			<title>Seta Curvada à Esquerda</title>
			<g id="shape36-21" v:mID="36" v:groupContext="shape">
				<title>Folha.36</title>
				<v:userDefs>
					<v:ud v:nameU="ArcHeight" v:prompt="" v:val="VT0(0.88582677165354):24"/>
					<v:ud v:nameU="BarWidth" v:prompt="" v:val="VT0(0.19685039370079):24"/>
					<v:ud v:nameU="ArrowBackX" v:prompt="" v:val="VT0(0.19685039370079):24"/>
					<v:ud v:nameU="ArrowTipY" v:prompt="" v:val="VT0(0.19685039370079):24"/>
					<v:ud v:nameU="FillForegnd" v:prompt="" v:val="VT5(1)"/>
					<v:ud v:nameU="ArcHeight" v:prompt="" v:val="VT0(1.6286779941981):24"/>
					<v:ud v:nameU="FillForegnd" v:prompt="" v:val="VT5(#4f88bb)"/>
				</v:userDefs>
				<g id="shadow36-22" v:groupContext="shadow" v:shadowOffsetX="0.345598" v:shadowOffsetY="-1.97279" v:shadowType="1"
						transform="matrix(1,0,0,1,0.345598,1.97279)" class="st1">
					<path d="M0 581.1 L14.17 566.93 L14.17 574.02 A28.3423 58.6238 -180 0 0 42.52 515.38 L42.52 529.56 A28.3423 58.6238
								 0 0 1 14.17 588.19 L14.17 595.28 L0 581.1 Z" class="st2"/>
				</g>
				<path d="M0 581.1 L14.17 566.93 L14.17 574.02 A28.3423 58.6238 -180 0 0 42.52 515.38 L42.52 529.56 A28.3423 58.6238
							 0 0 1 14.17 588.19 L14.17 595.28 L0 581.1 Z" class="st3"/>
			</g>
			<g id="shape35-26" v:mID="35" v:groupContext="groupContent">
				<g id="shadow35-27" v:groupContext="shadow" v:shadowOffsetX="0.345598" v:shadowOffsetY="-1.97279" v:shadowType="1"
						transform="matrix(1,0,0,1,0.345598,1.97279)" class="st1">
					<path d="M0 456.75 L0 470.92 A42.5134 58.6238 0 0 1 42.52 529.56 L42.52 515.38 A42.5134 58.6238 -180 0 0 0 456.75
								 Z" class="st4"/>
				</g>
				<path d="M0 456.75 L0 470.92 A42.5134 58.6238 0 0 1 42.52 529.56 L42.52 515.38 A42.5134 58.6238 -180 0 0 0 456.75
							 Z" class="st5"/>
			</g>
		</g>
		<g id="shape8-31" v:mID="8" v:groupContext="shape" transform="translate(340.157,-345.625)">
			<title>Retângulo Arredondado.8</title>
			<desc>Identificação e validação de requisitos</desc>
			<v:userDefs>
				<v:ud v:nameU="CTypeTopLeftSnip" v:prompt="" v:val="VT0(0):5"/>
				<v:ud v:nameU="CTypeTopRightSnip" v:prompt="" v:val="VT0(0):5"/>
				<v:ud v:nameU="CTypeBotLeftSnip" v:prompt="" v:val="VT0(0):5"/>
				<v:ud v:nameU="CTypeBotRightSnip" v:prompt="" v:val="VT0(0):5"/>
				<v:ud v:nameU="CornerLockHoriz" v:prompt="" v:val="VT0(1):5"/>
				<v:ud v:nameU="CornerLockVert" v:prompt="" v:val="VT0(1):5"/>
				<v:ud v:nameU="CornerLockDiag" v:prompt="" v:val="VT0(0):5"/>
				<v:ud v:nameU="TopLeftOffset" v:prompt="" v:val="VT0(0.15748031496063):24"/>
				<v:ud v:nameU="TopRightOffset" v:prompt="" v:val="VT0(0.15748031496063):24"/>
				<v:ud v:nameU="BotLeftOffset" v:prompt="" v:val="VT0(0.15748031496063):24"/>
				<v:ud v:nameU="BotRightOffset" v:prompt="" v:val="VT0(0.15748031496063):24"/>
				<v:ud v:nameU="visVersion" v:prompt="" v:val="VT0(15):26"/>
				<v:ud v:nameU="TopLeftOffset" v:prompt="" v:val="VT0(0.18009068525877):1"/>
				<v:ud v:nameU="TopRightOffset" v:prompt="" v:val="VT0(0.18009068525877):1"/>
				<v:ud v:nameU="BotLeftOffset" v:prompt="" v:val="VT0(0.18009068525877):1"/>
				<v:ud v:nameU="BotRightOffset" v:prompt="" v:val="VT0(0.18009068525877):1"/>
			</v:userDefs>
			<v:textBlock v:margins="rect(4,4,4,4)" v:tabSpace="42.5197"/>
			<v:textRect cx="64.8326" cy="563.05" width="129.67" height="64.4509"/>
			<g id="shadow8-32" v:groupContext="shadow" v:shadowOffsetX="0.345598" v:shadowOffsetY="-1.97279" v:shadowType="1"
					transform="matrix(1,0,0,1,0.345598,1.97279)" class="st1">
				<path d="M12.97 595.28 L116.7 595.28 A12.9663 12.9663 -180 0 0 129.67 582.31 L129.67 543.79 A12.9663 12.9663 -180
							 0 0 116.7 530.82 L12.97 530.82 A12.9663 12.9663 -180 0 0 0 543.79 L0 582.31 A12.9663 12.9663 -180 0
							 0 12.97 595.28 Z" class="st2"/>
			</g>
			<path d="M12.97 595.28 L116.7 595.28 A12.9663 12.9663 -180 0 0 129.67 582.31 L129.67 543.79 A12.9663 12.9663 -180 0 0
						 116.7 530.82 L12.97 530.82 A12.9663 12.9663 -180 0 0 0 543.79 L0 582.31 A12.9663 12.9663 -180 0 0 12.97
						 595.28 Z" class="st6"/>
			<text x="28.3" y="559.45" class="st7" v:langID="2070"><v:paragraph v:horizAlign="1"/><v:tabList/>Identificação e <tspan
						x="7.62" dy="1.2em" class="st8">validação de requisitos</tspan></text>		</g>
		<g id="shape1-38" v:mID="1" v:groupContext="shape" transform="translate(62.3622,-496.063)">
			<title>Folha.1</title>
			<desc>Desenvolvimento baseado em planeamento</desc>
			<v:textBlock v:margins="rect(4,4,4,4)" v:tabSpace="42.5197"/>
			<v:textRect cx="117.638" cy="566.929" width="235.28" height="56.6929"/>
			<rect x="0" y="538.583" width="235.276" height="56.6929" class="st9"/>
			<text x="19.45" y="562.13" class="st10" v:langID="2070"><v:paragraph v:horizAlign="1"/><v:tabList/>Desenvolvimento baseado em <tspan
						x="74.28" dy="1.2em" class="st8">planeamento </tspan> </text>		</g>
		<g id="shape2-42" v:mID="2" v:groupContext="shape" transform="translate(289.134,-496.063)">
			<title>Folha.2</title>
			<desc>Desenvolvimento ágil</desc>
			<v:textBlock v:margins="rect(4,4,4,4)" v:tabSpace="42.5197"/>
			<v:textRect cx="117.638" cy="566.929" width="235.28" height="56.6929"/>
			<rect x="0" y="538.583" width="235.276" height="56.6929" class="st9"/>
			<text x="47.76" y="571.73" class="st10" v:langID="2070"><v:paragraph v:horizAlign="1"/><v:tabList/>Desenvolvimento ágil</text>		</g>
		<g id="shape5-45" v:mID="5" v:groupContext="shape" transform="translate(127.559,-415.543)">
			<title>Retângulo Arredondado.5</title>
			<desc>Identificação e validação de requisitos</desc>
			<v:userDefs>
				<v:ud v:nameU="CTypeTopLeftSnip" v:prompt="" v:val="VT0(0):5"/>
				<v:ud v:nameU="CTypeTopRightSnip" v:prompt="" v:val="VT0(0):5"/>
				<v:ud v:nameU="CTypeBotLeftSnip" v:prompt="" v:val="VT0(0):5"/>
				<v:ud v:nameU="CTypeBotRightSnip" v:prompt="" v:val="VT0(0):5"/>
				<v:ud v:nameU="CornerLockHoriz" v:prompt="" v:val="VT0(1):5"/>
				<v:ud v:nameU="CornerLockVert" v:prompt="" v:val="VT0(1):5"/>
				<v:ud v:nameU="CornerLockDiag" v:prompt="" v:val="VT0(0):5"/>
				<v:ud v:nameU="TopLeftOffset" v:prompt="" v:val="VT0(0.15748031496063):24"/>
				<v:ud v:nameU="TopRightOffset" v:prompt="" v:val="VT0(0.15748031496063):24"/>
				<v:ud v:nameU="BotLeftOffset" v:prompt="" v:val="VT0(0.15748031496063):24"/>
				<v:ud v:nameU="BotRightOffset" v:prompt="" v:val="VT0(0.15748031496063):24"/>
				<v:ud v:nameU="visVersion" v:prompt="" v:val="VT0(15):26"/>
				<v:ud v:nameU="TopLeftOffset" v:prompt="" v:val="VT0(0.18009068525877):1"/>
				<v:ud v:nameU="TopRightOffset" v:prompt="" v:val="VT0(0.18009068525877):1"/>
				<v:ud v:nameU="BotLeftOffset" v:prompt="" v:val="VT0(0.18009068525877):1"/>
				<v:ud v:nameU="BotRightOffset" v:prompt="" v:val="VT0(0.18009068525877):1"/>
			</v:userDefs>
			<v:textBlock v:margins="rect(4,4,4,4)" v:tabSpace="42.5197"/>
			<v:textRect cx="64.8326" cy="563.05" width="129.67" height="64.4509"/>
			<g id="shadow5-46" v:groupContext="shadow" v:shadowOffsetX="0.345598" v:shadowOffsetY="-1.97279" v:shadowType="1"
					transform="matrix(1,0,0,1,0.345598,1.97279)" class="st1">
				<path d="M12.97 595.28 L116.7 595.28 A12.9663 12.9663 -180 0 0 129.67 582.31 L129.67 543.79 A12.9663 12.9663 -180
							 0 0 116.7 530.82 L12.97 530.82 A12.9663 12.9663 -180 0 0 0 543.79 L0 582.31 A12.9663 12.9663 -180 0
							 0 12.97 595.28 Z" class="st2"/>
			</g>
			<path d="M12.97 595.28 L116.7 595.28 A12.9663 12.9663 -180 0 0 129.67 582.31 L129.67 543.79 A12.9663 12.9663 -180 0 0
						 116.7 530.82 L12.97 530.82 A12.9663 12.9663 -180 0 0 0 543.79 L0 582.31 A12.9663 12.9663 -180 0 0 12.97
						 595.28 Z" class="st6"/>
			<text x="28.3" y="559.45" class="st7" v:langID="2070"><v:paragraph v:horizAlign="1"/><v:tabList/>Identificação e <tspan
						x="7.62" dy="1.2em" class="st8">validação de requisitos</tspan></text>		</g>
		<g id="shape6-52" v:mID="6" v:groupContext="shape" transform="translate(127.559,-282.868)">
			<title>Elipse</title>
			<desc>Especificação dos requisitos</desc>
			<v:userDefs>
				<v:ud v:nameU="visVersion" v:val="VT0(15):26"/>
			</v:userDefs>
			<v:textBlock v:margins="rect(4,4,4,4)" v:tabSpace="42.5197"/>
			<v:textRect cx="64.8326" cy="566.631" width="113.46" height="50.1285"/>
			<g id="shadow6-53" v:groupContext="shadow" v:shadowOffsetX="0.345598" v:shadowOffsetY="-1.97279" v:shadowType="1"
					transform="matrix(1,0,0,1,0.345598,1.97279)" class="st1">
				<path d="M0 566.63 A64.8326 28.6448 0 0 1 129.67 566.63 A64.8326 28.6448 0 1 1 -0 566.63 Z" class="st2"/>
			</g>
			<path d="M0 566.63 A64.8326 28.6448 0 0 1 129.67 566.63 A64.8326 28.6448 0 1 1 -0 566.63 Z" class="st6"/>
			<text x="21.55" y="563.03" class="st7" v:langID="2070"><v:paragraph v:horizAlign="1"/><v:tabList/>Especificação dos <tspan
						x="40.2" dy="1.2em" class="st8">requisitos</tspan></text>		</g>
		<g id="shape9-59" v:mID="9" v:groupContext="shape" transform="translate(127.559,-146.261)">
			<title>Retângulo Arredondado.9</title>
			<desc>Design e implementação de código</desc>
			<v:userDefs>
				<v:ud v:nameU="CTypeTopLeftSnip" v:prompt="" v:val="VT0(0):5"/>
				<v:ud v:nameU="CTypeTopRightSnip" v:prompt="" v:val="VT0(0):5"/>
				<v:ud v:nameU="CTypeBotLeftSnip" v:prompt="" v:val="VT0(0):5"/>
				<v:ud v:nameU="CTypeBotRightSnip" v:prompt="" v:val="VT0(0):5"/>
				<v:ud v:nameU="CornerLockHoriz" v:prompt="" v:val="VT0(1):5"/>
				<v:ud v:nameU="CornerLockVert" v:prompt="" v:val="VT0(1):5"/>
				<v:ud v:nameU="CornerLockDiag" v:prompt="" v:val="VT0(0):5"/>
				<v:ud v:nameU="TopLeftOffset" v:prompt="" v:val="VT0(0.15748031496063):24"/>
				<v:ud v:nameU="TopRightOffset" v:prompt="" v:val="VT0(0.15748031496063):24"/>
				<v:ud v:nameU="BotLeftOffset" v:prompt="" v:val="VT0(0.15748031496063):24"/>
				<v:ud v:nameU="BotRightOffset" v:prompt="" v:val="VT0(0.15748031496063):24"/>
				<v:ud v:nameU="visVersion" v:prompt="" v:val="VT0(15):26"/>
				<v:ud v:nameU="TopLeftOffset" v:prompt="" v:val="VT0(0.18009068525877):1"/>
				<v:ud v:nameU="TopRightOffset" v:prompt="" v:val="VT0(0.18009068525877):1"/>
				<v:ud v:nameU="BotLeftOffset" v:prompt="" v:val="VT0(0.18009068525877):1"/>
				<v:ud v:nameU="BotRightOffset" v:prompt="" v:val="VT0(0.18009068525877):1"/>
			</v:userDefs>
			<v:textBlock v:margins="rect(4,4,4,4)" v:tabSpace="42.5197"/>
			<v:textRect cx="64.8326" cy="563.05" width="129.67" height="64.4509"/>
			<g id="shadow9-60" v:groupContext="shadow" v:shadowOffsetX="0.345598" v:shadowOffsetY="-1.97279" v:shadowType="1"
					transform="matrix(1,0,0,1,0.345598,1.97279)" class="st1">
				<path d="M12.97 595.28 L116.7 595.28 A12.9663 12.9663 -180 0 0 129.67 582.31 L129.67 543.79 A12.9663 12.9663 -180
							 0 0 116.7 530.82 L12.97 530.82 A12.9663 12.9663 -180 0 0 0 543.79 L0 582.31 A12.9663 12.9663 -180 0
							 0 12.97 595.28 Z" class="st2"/>
			</g>
			<path d="M12.97 595.28 L116.7 595.28 A12.9663 12.9663 -180 0 0 129.67 582.31 L129.67 543.79 A12.9663 12.9663 -180 0 0
						 116.7 530.82 L12.97 530.82 A12.9663 12.9663 -180 0 0 0 543.79 L0 582.31 A12.9663 12.9663 -180 0 0 12.97
						 595.28 Z" class="st6"/>
			<text x="43.72" y="552.25" class="st7" v:langID="2070"><v:paragraph v:horizAlign="1"/><v:tabList/>Design e <tspan
						x="18.31" dy="1.2em" class="st8">implementação de </tspan><tspan x="48.33" dy="1.2em" class="st8">código</tspan></text>		</g>
		<g id="shape10-67" v:mID="10" v:groupContext="shape" transform="translate(-402.884,255.118) rotate(-90)">
			<title>Seta Simples</title>
			<v:userDefs>
				<v:ud v:nameU="visVersion" v:val="VT0(15):26"/>
				<v:ud v:nameU="ArrowType" v:prompt="" v:val="VT0(2):26"/>
			</v:userDefs>
			<g id="shadow10-68" v:groupContext="shadow" v:shadowOffsetX="0.345598" v:shadowOffsetY="-1.97279" v:shadowType="1"
					transform="matrix(1,0,0,1,-1.97279,0.345598)" class="st1">
				<path d="M0 595.28 L19.84 586.77 L19.84 591.02 L75.39 591.02 L75.39 595.28 L75.39 599.53 L19.84 599.53 L19.84 603.78
							 L0 595.28 Z" class="st4"/>
			</g>
			<path d="M0 595.28 L19.84 586.77 L19.84 591.02 L75.39 591.02 L75.39 595.28 L75.39 599.53 L19.84 599.53 L19.84 603.78
						 L0 595.28 Z" class="st5"/>
		</g>
		<g id="shape11-72" v:mID="11" v:groupContext="shape" transform="translate(-402.884,384.564) rotate(-90)">
			<title>Seta Simples.11</title>
			<v:userDefs>
				<v:ud v:nameU="visVersion" v:val="VT0(15):26"/>
				<v:ud v:nameU="ArrowType" v:prompt="" v:val="VT0(2):26"/>
			</v:userDefs>
			<g id="shadow11-73" v:groupContext="shadow" v:shadowOffsetX="0.345598" v:shadowOffsetY="-1.97279" v:shadowType="1"
					transform="matrix(1,0,0,1,-1.97279,0.345598)" class="st1">
				<path d="M0 595.28 L19.84 586.77 L19.84 591.02 L72.16 591.02 L72.16 595.28 L72.16 599.53 L19.84 599.53 L19.84 603.78
							 L0 595.28 Z" class="st4"/>
			</g>
			<path d="M0 595.28 L19.84 586.77 L19.84 591.02 L72.16 591.02 L72.16 595.28 L72.16 599.53 L19.84 599.53 L19.84 603.78
						 L0 595.28 Z" class="st5"/>
		</g>
		<g id="group20-77" transform="translate(70.8661,-418.11)" v:mID="20" v:groupContext="group">
			<v:userDefs>
				<v:ud v:nameU="ArcHeight" v:prompt="" v:val="VT0(0.88582677165354):24"/>
				<v:ud v:nameU="visVersion" v:prompt="" v:val="VT0(15):26"/>
				<v:ud v:nameU="ArcHeight" v:prompt="" v:val="VT0(0.49212599681665):24"/>
			</v:userDefs>
			<title>Seta Curvada à Direita</title>
			<g id="shape21-78" v:mID="21" v:groupContext="shape">
				<title>Folha.21</title>
				<v:userDefs>
					<v:ud v:nameU="BarWidth" v:prompt="" v:val="VT0(0.19685039370079):24"/>
					<v:ud v:nameU="ArrowTipY" v:prompt="" v:val="VT0(0.19685039370079):24"/>
					<v:ud v:nameU="ArcHeight" v:prompt="" v:val="VT0(0.88582677165354):24"/>
					<v:ud v:nameU="FillForegnd" v:prompt="" v:val="VT5(1)"/>
					<v:ud v:nameU="ArcHeight" v:prompt="" v:val="VT0(0.49212599681665):24"/>
					<v:ud v:nameU="FillForegnd" v:prompt="" v:val="VT5(#4f88bb)"/>
				</v:userDefs>
				<g id="shadow21-79" v:groupContext="shadow" v:shadowOffsetX="0.345598" v:shadowOffsetY="-1.97279" v:shadowType="1"
						transform="matrix(1,0,0,1,0.345598,1.97279)" class="st1">
					<path d="M56.69 538.58 L56.69 552.76 A56.6846 17.7139 -180 0 0 0 570.47 L0 556.3 A56.6846 17.7139 0 0 1 56.69
								 538.58 Z" class="st2"/>
				</g>
				<path d="M56.69 538.58 L56.69 552.76 A56.6846 17.7139 -180 0 0 0 570.47 L0 556.3 A56.6846 17.7139 0 0 1 56.69 538.58
							 Z" class="st11"/>
			</g>
			<g id="shape20-83" v:mID="20" v:groupContext="groupContent">
				<g id="shadow20-84" v:groupContext="shadow" v:shadowOffsetX="0.345598" v:shadowOffsetY="-1.97279" v:shadowType="1"
						transform="matrix(1,0,0,1,0.345598,1.97279)" class="st1">
					<path d="M56.69 581.1 L42.52 566.93 L42.52 574.02 A42.5134 17.7139 0 0 1 -0 556.3 L0 570.47 A42.5134 17.7139
								 -180 0 0 42.52 588.19 L42.52 595.28 L56.69 581.1 Z" class="st4"/>
				</g>
				<path d="M56.69 581.1 L42.52 566.93 L42.52 574.02 A42.5134 17.7139 0 0 1 -0 556.3 L0 570.47 A42.5134 17.7139 -180
							 0 0 42.52 588.19 L42.52 595.28 L56.69 581.1 Z" class="st5"/>
			</g>
		</g>
		<g id="group33-88" transform="translate(70.8661,-146.261)" v:mID="33" v:groupContext="group">
			<v:userDefs>
				<v:ud v:nameU="ArcHeight" v:prompt="" v:val="VT0(0.88582677165354):24"/>
				<v:ud v:nameU="visVersion" v:prompt="" v:val="VT0(15):26"/>
				<v:ud v:nameU="ArcHeight" v:prompt="" v:val="VT0(0.49212599681665):24"/>
			</v:userDefs>
			<title>Seta Curvada à Direita.33</title>
			<g id="shape34-89" v:mID="34" v:groupContext="shape">
				<title>Folha.34</title>
				<v:userDefs>
					<v:ud v:nameU="BarWidth" v:prompt="" v:val="VT0(0.19685039370079):24"/>
					<v:ud v:nameU="ArrowTipY" v:prompt="" v:val="VT0(0.19685039370079):24"/>
					<v:ud v:nameU="ArcHeight" v:prompt="" v:val="VT0(0.88582677165354):24"/>
					<v:ud v:nameU="FillForegnd" v:prompt="" v:val="VT5(1)"/>
					<v:ud v:nameU="ArcHeight" v:prompt="" v:val="VT0(0.49212599681665):24"/>
					<v:ud v:nameU="FillForegnd" v:prompt="" v:val="VT5(#4f88bb)"/>
				</v:userDefs>
				<g id="shadow34-90" v:groupContext="shadow" v:shadowOffsetX="0.345598" v:shadowOffsetY="-1.97279" v:shadowType="1"
						transform="matrix(1,0,0,1,0.345598,1.97279)" class="st1">
					<path d="M56.69 538.58 L56.69 552.76 A56.6846 17.7139 -180 0 0 0 570.47 L0 556.3 A56.6846 17.7139 0 0 1 56.69
								 538.58 Z" class="st2"/>
				</g>
				<path d="M56.69 538.58 L56.69 552.76 A56.6846 17.7139 -180 0 0 0 570.47 L0 556.3 A56.6846 17.7139 0 0 1 56.69 538.58
							 Z" class="st11"/>
			</g>
			<g id="shape33-94" v:mID="33" v:groupContext="groupContent">
				<g id="shadow33-95" v:groupContext="shadow" v:shadowOffsetX="0.345598" v:shadowOffsetY="-1.97279" v:shadowType="1"
						transform="matrix(1,0,0,1,0.345598,1.97279)" class="st1">
					<path d="M56.69 581.1 L42.52 566.93 L42.52 574.02 A42.5134 17.7139 0 0 1 -0 556.3 L0 570.47 A42.5134 17.7139
								 -180 0 0 42.52 588.19 L42.52 595.28 L56.69 581.1 Z" class="st4"/>
				</g>
				<path d="M56.69 581.1 L42.52 566.93 L42.52 574.02 A42.5134 17.7139 0 0 1 -0 556.3 L0 570.47 A42.5134 17.7139 -180
							 0 0 42.52 588.19 L42.52 595.28 L56.69 581.1 Z" class="st5"/>
			</g>
		</g>
	</g>
</svg>
